# xmcd CD database file
#
# Track frame offsets:
#	150
#	9256
#	29947
#	49407
#	72212
#	94899
#	115525
#	138810
#	157091
#	179468
#	202216
#	228145
#	249935
#	275163
#	296224
#	305810
#
# Disc length: 4359 seconds
#
# Revision: 2
# Processed by: cddbd v1.5.1PL0 Copyright (c) Steve Scherf et al.
# Submitted via: CDex 1.50beta8
#
DISCID=f2110510
DTITLE=EXILE - EXILE ENTERTAINMENT
DYEAR=1900
DGENRE=JPop
TTITLE0=EXILE COME(instrumental)
TTITLE1=New Jack Swing
TTITLE2=Together
TTITLE3=Believe(Original Version)
TTITLE4=Time
TTITLE5=ki・zu・na
TTITLE6=BLUE 〜云えずにいる〜
TTITLE7=LET ME LUV U DOWN(feat.ZEEBRA and MACCHO(OZROSAURUS))
TTITLE8=砂時計
TTITLE9=O'ver
TTITLE10=Be Mine
TTITLE11=Unlimited
TTITLE12=Eternal...
TTITLE13=Choo Choo TRAIN
TTITLE14=ROAD-RUNNER(instrumental)
TTITLE15=M&A
EXTD=
EXTT0=
EXTT1=
EXTT2=
EXTT3=
EXTT4=
EXTT5=
EXTT6=
EXTT7=
EXTT8=
EXTT9=
EXTT10=
EXTT11=
EXTT12=
EXTT13=
EXTT14=
EXTT15=
PLAYORDER=
